<svg width="20" height="20" viewBox="0 0 20 20" fill="none" xmlns="http://www.w3.org/2000/svg">
<path fill-rule="evenodd" clip-rule="evenodd" d="M2.98816 2.15491C2.5 2.64306 2.5 3.42873 2.5 5.00008V13.3334C2.5 15.6904 2.5 16.8689 3.23223 17.6012C3.76665 18.1356 4.53879 18.28 5.83333 18.319V15.8334C5.83333 15.3732 6.20643 15.0001 6.66667 15.0001C7.1269 15.0001 7.5 15.3732 7.5 15.8334V18.3334H12.5V15.8334C12.5 15.3732 12.8731 15.0001 13.3333 15.0001C13.7936 15.0001 14.1667 15.3732 14.1667 15.8334V18.319C15.4612 18.28 16.2333 18.1356 16.7677 17.6012C17.5 16.8689 17.5 15.6904 17.5 13.3334V5.00008C17.5 3.42873 17.5 2.64306 17.0118 2.15491C16.5237 1.66675 15.738 1.66675 14.1667 1.66675H5.83333C4.26198 1.66675 3.47631 1.66675 2.98816 2.15491ZM6.66667 6.66675C6.20643 6.66675 5.83333 7.03985 5.83333 7.50008C5.83333 7.96031 6.20643 8.33341 6.66667 8.33341H13.3333C13.7936 8.33341 14.1667 7.96031 14.1667 7.50008C14.1667 7.03985 13.7936 6.66675 13.3333 6.66675H6.66667ZM6.66667 11.6667H13.3333C13.7936 11.6667 14.1667 11.2937 14.1667 10.8334C14.1667 10.3732 13.7936 10.0001 13.3333 10.0001H6.66667C6.20643 10.0001 5.83333 10.3732 5.83333 10.8334C5.83333 11.2937 6.20643 11.6667 6.66667 11.6667Z" fill="white"/>
</svg>
