<svg width="75" height="75" viewBox="0 0 75 75" fill="none" xmlns="http://www.w3.org/2000/svg">
<g clip-path="url(#clip0_41_259)">
<path d="M73.582 34.1859L40.7695 1.37344C39.8543 0.458203 38.6543 0 37.4555 0C36.2566 0 35.0566 0.458203 34.1414 1.37344L1.3289 34.1859C-0.501565 36.0211 -0.410158 38.8922 1.42031 40.7227C3.25547 42.5625 5.93789 42.8332 7.77422 40.9969L9.375 39.3949V70.3125C9.375 72.9035 11.4715 75 14.0625 75H32.8125V56.25H42.1875V75H60.9375C63.5285 75 65.625 72.9035 65.625 70.3125V39.4863L67.0254 40.8867C68.8559 42.7172 71.6531 42.5531 73.4894 40.7215C75.3211 38.8922 75.4172 36.0164 73.582 34.1859Z" fill="#73BDE1"/>
</g>
<defs>
<clipPath id="clip0_41_259">
<rect width="75" height="75" fill="white"/>
</clipPath>
</defs>
</svg>
