<svg width="75" height="75" viewBox="0 0 75 75" fill="none" xmlns="http://www.w3.org/2000/svg">
<path fill-rule="evenodd" clip-rule="evenodd" d="M46.875 6.25H53.125C59.0175 6.25 61.9637 6.25 63.7944 8.08059C65.625 9.91116 65.625 12.8574 65.625 18.75V66.4062H68.75C70.0444 66.4062 71.0937 67.4556 71.0937 68.75C71.0937 70.0444 70.0444 71.0937 68.75 71.0937H6.25C4.95559 71.0937 3.90625 70.0444 3.90625 68.75C3.90625 67.4556 4.95559 66.4062 6.25 66.4062H9.375V28.125C9.375 22.2324 9.375 19.2862 11.2056 17.4556C13.0362 15.625 15.9824 15.625 21.875 15.625H34.375C40.2675 15.625 43.2137 15.625 45.0444 17.4556C46.875 19.2862 46.875 22.2324 46.875 28.125V66.4062H51.5625V28.125V27.8453C51.5628 25.1402 51.5631 22.66 51.2919 20.6425C50.9931 18.4207 50.2903 16.0724 48.3591 14.141C46.4275 12.2096 44.0794 11.5068 41.8575 11.2081C39.8684 10.9407 37.4294 10.9372 34.7687 10.9375C35.0322 9.72734 35.4719 8.81434 36.2056 8.08059C38.0362 6.25 40.9825 6.25 46.875 6.25ZM16.4062 25C16.4062 23.7056 17.4556 22.6562 18.75 22.6562H37.5C38.7944 22.6562 39.8437 23.7056 39.8437 25C39.8437 26.2944 38.7944 27.3437 37.5 27.3437H18.75C17.4556 27.3437 16.4062 26.2944 16.4062 25ZM16.4062 34.375C16.4062 33.0806 17.4556 32.0312 18.75 32.0312H37.5C38.7944 32.0312 39.8437 33.0806 39.8437 34.375C39.8437 35.6694 38.7944 36.7187 37.5 36.7187H18.75C17.4556 36.7187 16.4062 35.6694 16.4062 34.375ZM16.4062 43.75C16.4062 42.4556 17.4556 41.4062 18.75 41.4062H37.5C38.7944 41.4062 39.8437 42.4556 39.8437 43.75C39.8437 45.0444 38.7944 46.0937 37.5 46.0937H18.75C17.4556 46.0937 16.4062 45.0444 16.4062 43.75ZM28.125 57.0312C29.4194 57.0312 30.4687 58.0806 30.4687 59.375V66.4062H25.7812V59.375C25.7812 58.0806 26.8306 57.0312 28.125 57.0312Z" fill="#73BDE1"/>
</svg>
