<svg width="50" height="50" viewBox="0 0 50 50" fill="none" xmlns="http://www.w3.org/2000/svg">
<path fill-rule="evenodd" clip-rule="evenodd" d="M7.21764 42.7823C10.2686 45.8333 15.1791 45.8333 25 45.8333C34.8208 45.8333 39.7314 45.8333 42.7823 42.7823C45.8333 39.7315 45.8333 34.8208 45.8333 25C45.8333 15.1791 45.8333 10.2686 42.7823 7.21764C39.7314 4.16666 34.8208 4.16666 25 4.16666C15.1791 4.16666 10.2686 4.16666 7.21764 7.21764C4.16666 10.2686 4.16666 15.1791 4.16666 25C4.16666 34.8208 4.16666 39.7315 7.21764 42.7823ZM39.0625 33.3333C39.0625 34.1962 38.3629 34.8958 37.5 34.8958H12.5C11.6371 34.8958 10.9375 34.1962 10.9375 33.3333C10.9375 32.4704 11.6371 31.7708 12.5 31.7708H37.5C38.3629 31.7708 39.0625 32.4704 39.0625 33.3333ZM37.5 26.5625C38.3629 26.5625 39.0625 25.8629 39.0625 25C39.0625 24.1371 38.3629 23.4375 37.5 23.4375H12.5C11.6371 23.4375 10.9375 24.1371 10.9375 25C10.9375 25.8629 11.6371 26.5625 12.5 26.5625H37.5ZM39.0625 16.6667C39.0625 17.5296 38.3629 18.2292 37.5 18.2292H12.5C11.6371 18.2292 10.9375 17.5296 10.9375 16.6667C10.9375 15.8037 11.6371 15.1042 12.5 15.1042H37.5C38.3629 15.1042 39.0625 15.8037 39.0625 16.6667Z" fill="#005884"/>
</svg>
