<svg width="20" height="20" viewBox="0 0 20 20" fill="none" xmlns="http://www.w3.org/2000/svg">
<path d="M12.9635 12.1231L12.5839 12.5227C12.5839 12.5227 11.6817 13.4725 9.21925 10.8799C6.75676 8.28737 7.65891 7.33756 7.65891 7.33756L7.89793 7.08593C8.48675 6.46603 8.54225 5.47081 8.02853 4.74425L6.97771 3.25801C6.3419 2.35875 5.1133 2.23996 4.38454 3.0072L3.07654 4.38428C2.71519 4.76472 2.47304 5.25787 2.50241 5.80495C2.57753 7.20455 3.17559 10.2158 6.5128 13.7293C10.0517 17.4552 13.3723 17.6032 14.7302 17.4692C15.1597 17.4268 15.5332 17.1952 15.8342 16.8783L17.0181 15.632C17.8172 14.7907 17.5918 13.3485 16.5694 12.76L14.9773 11.8436C14.306 11.4572 13.4882 11.5707 12.9635 12.1231Z" fill="white"/>
<path d="M11.0496 1.56661C11.1047 1.22587 11.4268 0.994725 11.7676 1.04988C11.7887 1.05393 11.8566 1.06661 11.8921 1.07453C11.9632 1.09037 12.0624 1.11474 12.1861 1.15077C12.4334 1.2228 12.7789 1.34148 13.1936 1.53158C14.0238 1.91222 15.1287 2.57805 16.2752 3.72455C17.4217 4.87105 18.0875 5.97589 18.4681 6.80612C18.6582 7.22081 18.7769 7.56631 18.8489 7.81362C18.8849 7.9373 18.9093 8.03649 18.9252 8.10759C18.9331 8.14315 18.9389 8.1717 18.9429 8.19279L18.9477 8.21879C19.0028 8.5595 18.7738 8.895 18.4331 8.95017C18.0933 9.00517 17.7732 8.77508 17.7167 8.436C17.715 8.42683 17.7102 8.40242 17.7051 8.37933C17.6947 8.33317 17.677 8.25998 17.6488 8.16318C17.5924 7.96957 17.4945 7.6818 17.3318 7.32707C17.007 6.61847 16.4228 5.63999 15.3912 4.60843C14.3597 3.57688 13.3812 2.99273 12.6727 2.66787C12.3179 2.50523 12.0302 2.40729 11.8365 2.35089C11.7397 2.3227 11.6181 2.29478 11.5719 2.2845C11.2327 2.22798 10.9946 1.90638 11.0496 1.56661Z" fill="white"/>
<path fill-rule="evenodd" clip-rule="evenodd" d="M11.2381 4.44101C11.3329 4.10911 11.6788 3.91693 12.0107 4.01176L11.8391 4.61271C12.0107 4.01176 12.0107 4.01176 12.0107 4.01176L12.012 4.01211L12.0132 4.01247L12.016 4.01328L12.0225 4.01521L12.039 4.02035C12.0515 4.02436 12.0672 4.0296 12.0859 4.03624C12.1233 4.04952 12.1728 4.06841 12.2335 4.09441C12.3549 4.14644 12.5207 4.22679 12.7246 4.34738C13.1324 4.58878 13.6892 4.98976 14.3434 5.64391C14.9976 6.29806 15.3985 6.85487 15.6399 7.26276C15.7605 7.46652 15.8408 7.63241 15.8929 7.75381C15.9189 7.81448 15.9378 7.86395 15.9511 7.90137C15.9577 7.92008 15.9629 7.93577 15.967 7.94834L15.9721 7.96483L15.974 7.97129L15.9748 7.97406L15.9752 7.97535C15.9752 7.97535 15.9756 7.97655 15.3746 8.14825L15.9756 7.97655C16.0704 8.30844 15.8782 8.65435 15.5463 8.74918C15.2172 8.84318 14.8743 8.6551 14.7761 8.32837L14.773 8.31939C14.7686 8.30686 14.7594 8.28221 14.744 8.24621C14.7132 8.17426 14.6572 8.05657 14.5642 7.89941C14.3784 7.58546 14.0428 7.11109 13.4595 6.52779C12.8762 5.9445 12.4018 5.60891 12.0879 5.42311C11.9307 5.33009 11.8131 5.27417 11.7411 5.24334C11.7051 5.22791 11.6804 5.21871 11.6679 5.21427L11.6589 5.2112C11.3322 5.11296 11.1441 4.77009 11.2381 4.44101Z" fill="white"/>
</svg>
