<svg width="50" height="50" viewBox="0 0 50 50" fill="none" xmlns="http://www.w3.org/2000/svg">
<path d="M32.4087 30.3077L31.4598 31.3067C31.4598 31.3067 29.2044 33.6812 23.0481 27.1998C16.8919 20.7184 19.1473 18.3439 19.1473 18.3439L19.7448 17.7148C21.2169 16.1651 21.3556 13.677 20.0713 11.8606L17.4443 8.14502C15.8547 5.89688 12.7832 5.5999 10.9613 7.518L7.69135 10.9607C6.78798 11.9118 6.1826 13.1447 6.25602 14.5124C6.44383 18.0114 7.93897 25.5396 16.282 34.3233C25.1294 43.6379 33.4308 44.0081 36.8256 43.6731C37.8994 43.5671 38.8331 42.9881 39.5856 42.1958L42.5452 39.08C44.5429 36.9769 43.9796 33.3713 41.4235 31.9L37.4433 29.609C35.765 28.6429 33.7204 28.9267 32.4087 30.3077Z" fill="#73BDE1"/>
<path d="M27.6239 3.91631C27.7619 3.06445 28.5671 2.4866 29.419 2.6245C29.4717 2.6346 29.6415 2.66631 29.7302 2.6861C29.9081 2.7257 30.156 2.78664 30.4652 2.8767C31.0835 3.05679 31.9473 3.35347 32.984 3.82875C35.0596 4.78033 37.8217 6.44491 40.6879 9.31116C43.5542 12.1774 45.2187 14.9395 46.1702 17.0151C46.6456 18.0518 46.9423 18.9156 47.1223 19.5338C47.2123 19.843 47.2733 20.091 47.3129 20.2688C47.3327 20.3577 47.3473 20.429 47.3573 20.4818L47.3694 20.5468C47.5071 21.3985 46.9346 22.2373 46.0827 22.3752C45.2333 22.5127 44.4331 21.9375 44.2919 21.0898C44.2875 21.0669 44.2754 21.0058 44.2627 20.9481C44.2369 20.8327 44.1925 20.6497 44.1221 20.4077C43.981 19.9237 43.7362 19.2043 43.3296 18.3175C42.5175 16.546 41.0571 14.0998 38.4781 11.5209C35.8994 8.942 33.4531 7.4816 31.6817 6.66945C30.7948 6.26287 30.0754 6.01802 29.5912 5.87702C29.3494 5.80654 29.0452 5.73672 28.9298 5.71104C28.0819 5.56972 27.4864 4.76572 27.6239 3.91631Z" fill="#73BDE1"/>
<path fill-rule="evenodd" clip-rule="evenodd" d="M28.0952 11.1027C28.3323 10.273 29.1971 9.79251 30.0269 10.0296L29.5977 11.532C30.0269 10.0296 30.0269 10.0296 30.0269 10.0296L30.03 10.0304L30.0331 10.0314L30.04 10.0334L30.0563 10.0382L30.0975 10.0511C30.1288 10.0611 30.1681 10.0742 30.2148 10.0908C30.3083 10.124 30.4321 10.1712 30.5838 10.2362C30.8873 10.3663 31.3019 10.5672 31.8115 10.8686C32.8311 11.4721 34.2231 12.4746 35.8586 14.1099C37.494 15.7453 38.4963 17.1374 39.0998 18.1571C39.4013 18.6665 39.6021 19.0812 39.7323 19.3847C39.7973 19.5364 39.8446 19.6601 39.8777 19.7536C39.8944 19.8004 39.9073 19.8396 39.9175 19.871L39.9302 19.9123L39.935 19.9284L39.9371 19.9353L39.9379 19.9386C39.9379 19.9386 39.939 19.9416 38.4365 20.3708L39.939 19.9416C40.1761 20.7713 39.6954 21.6361 38.8658 21.8731C38.0431 22.1081 37.1858 21.6379 36.9402 20.8211L36.9325 20.7987C36.9215 20.7673 36.8986 20.7057 36.86 20.6157C36.7829 20.4358 36.6431 20.1416 36.4106 19.7487C35.9461 18.9638 35.1071 17.7779 33.6488 16.3197C32.1906 14.8614 31.0046 14.0225 30.2198 13.5579C29.8269 13.3254 29.5327 13.1856 29.3527 13.1085C29.2627 13.07 29.2011 13.047 29.1698 13.0359L29.1473 13.0282C28.3306 12.7826 27.8602 11.9254 28.0952 11.1027Z" fill="#73BDE1"/>
</svg>
