<svg width="17" height="17" viewBox="0 0 17 17" fill="none" xmlns="http://www.w3.org/2000/svg">
<path d="M6.4835 3.83094C7.3807 2.22143 7.82929 1.41667 8.50001 1.41667C9.17073 1.41667 9.61932 2.22142 10.5165 3.83093L10.7486 4.24733C11.0036 4.7047 11.131 4.93339 11.3299 5.08428C11.5286 5.23517 11.7761 5.29118 12.2712 5.4032L12.722 5.50519C14.4642 5.8994 15.3354 6.0965 15.5427 6.76298C15.7499 7.42943 15.1561 8.12395 13.9683 9.51285L13.661 9.87219C13.3235 10.2669 13.1547 10.4642 13.0787 10.7084C13.0029 10.9525 13.0284 11.2158 13.0794 11.7425L13.1259 12.2219C13.3054 14.075 13.3952 15.0016 12.8526 15.4135C12.31 15.8254 11.4943 15.4498 9.86305 14.6988L9.44103 14.5044C8.9775 14.291 8.74573 14.1842 8.50001 14.1842C8.25429 14.1842 8.02252 14.291 7.55899 14.5044L7.13696 14.6988C5.50566 15.4498 4.69001 15.8254 4.14741 15.4135C3.6048 15.0016 3.69459 14.075 3.87417 12.2219L3.92062 11.7425C3.97165 11.2158 3.99717 10.9525 3.92124 10.7084C3.84532 10.4642 3.67656 10.2669 3.33903 9.87219L3.03174 9.51285C1.84398 8.12395 1.25009 7.42943 1.45735 6.76298C1.6646 6.0965 2.53574 5.8994 4.27801 5.50519L4.72876 5.4032C5.22386 5.29118 5.47141 5.23517 5.67017 5.08428C5.86894 4.93339 5.99642 4.70471 6.25138 4.24733L6.4835 3.83094Z" fill="#73BDE1"/>
</svg>
